<svg width="113" height="82" viewBox="0 0 113 82" fill="none" xmlns="http://www.w3.org/2000/svg">
<path d="M5.84739 67.5938L0 81.5413H1.47768L5.84739 70.9455L10.1749 81.5413H11.6526L5.84739 67.5938Z" fill="white"/>
<path d="M22.27 74.7512L28.6663 68.2207H26.8931L21.2779 73.9727V75.6594L27.1886 81.5628H29.1096L22.27 74.7512ZM19.5469 68.2207V81.5412H20.8979V68.2207H19.5469Z" fill="white"/>
<path d="M45.0698 68.2207V73.9078H38.0825V68.2207H36.7314V81.5412H38.0825V75.0972H45.0698V81.5412H46.4208V68.2207H45.0698Z" fill="white"/>
<path d="M55.2236 68.2207V81.5412H56.5747V68.2207H55.2236Z" fill="white"/>
<path d="M66.727 80.3518V68.2207H65.376V81.5412H72.5744V80.3518H66.727Z" fill="white"/>
<path d="M85.6208 67.5938L79.7734 81.5413H81.2511L85.6208 70.9455L89.9483 81.5413H91.426L85.6208 67.5938Z" fill="white"/>
<path d="M111.522 67.7461L105.738 78.969L99.8906 67.7461L98.4341 81.5423H99.7851L100.735 72.2655L105.717 81.8666L110.657 72.2872L111.649 81.5423H113L111.522 67.7461Z" fill="white"/>
<path fill-rule="evenodd" clip-rule="evenodd" d="M39.0962 32.4338C39.0118 31.8499 38.9907 31.2877 39.1596 30.7255C39.2229 30.5525 39.2862 30.3795 39.3706 30.2065C39.4551 30.0767 39.5184 29.947 39.624 29.8605C39.9828 29.4496 40.4895 29.2334 41.0383 29.1469C41.2705 29.1037 41.4816 29.082 41.7138 29.082C41.7983 29.082 41.8827 29.082 41.9671 29.082C42.1571 29.1037 42.3471 29.1253 42.5371 29.1469C42.5371 29.1685 42.5582 29.1685 42.5582 29.1685C42.4316 29.255 42.2838 29.3415 42.1571 29.428C41.9883 29.5145 41.7349 29.6875 41.5238 29.9686C41.1439 30.4444 41.0594 30.9417 41.0383 31.2012C40.9539 32.1743 41.1861 33.0825 41.545 33.9475C41.7138 34.3367 41.8827 34.7043 42.0727 35.0503C41.5661 34.9638 41.0805 34.8989 40.5739 34.8989C40.3417 34.8989 40.1095 34.9205 39.8773 34.9205C39.4762 34.1637 39.2229 33.3204 39.0962 32.4338Z" fill="white"/>
<path fill-rule="evenodd" clip-rule="evenodd" d="M35.4431 34.8999C35.2743 34.1214 35.2109 33.343 35.2531 32.5212C35.2743 32.3266 35.2954 32.132 35.3165 31.959C35.5487 30.7913 36.2664 29.8399 37.3219 29.3857C37.5541 29.3209 37.7863 29.2776 37.9974 29.2344C37.5963 29.775 37.3641 30.3372 37.2164 30.8994C37.0897 31.4184 37.0475 31.959 37.0897 32.5212C37.1108 33.0618 37.2163 33.6241 37.343 34.1863C37.4486 34.6188 37.5752 35.0296 37.723 35.4189C37.0686 35.6567 36.4564 35.9595 35.8653 36.3703C35.6964 35.8946 35.5487 35.3972 35.4431 34.8999Z" fill="white"/>
<path fill-rule="evenodd" clip-rule="evenodd" d="M31.8773 39.6146C31.3073 38.2091 30.9484 36.7819 30.9907 35.2466C30.9907 35.1384 30.9907 35.0303 31.0118 34.9222C31.0962 33.6247 31.5395 32.5219 32.3628 31.657C32.7217 31.3975 33.0805 31.1596 33.4605 30.9434C33.3338 31.3326 33.2283 31.7002 33.1439 32.0894C33.0594 32.5652 33.0172 33.0409 32.9961 33.5166C32.975 34.5546 33.1227 35.5709 33.3972 36.5873C33.5449 37.1495 33.7138 37.7117 33.9249 38.2307C33.3127 39.0524 32.8272 39.9606 32.5317 40.9337C32.5106 40.9769 32.5106 40.9986 32.5106 41.0418C32.2995 40.5877 32.0884 40.112 31.8773 39.6146Z" fill="white"/>
<path fill-rule="evenodd" clip-rule="evenodd" d="M34.8736 56.7618C35.0425 56.805 35.1903 56.9132 35.338 57.0213C34.3037 56.6104 33.3326 56.0698 32.4249 55.3995C30.2928 53.8642 28.5618 51.745 27.5063 49.1934C27.5275 49.215 27.5486 49.2582 27.5697 49.2799C28.1819 50.1448 28.794 51.0098 29.4695 51.8099C30.0395 52.4802 30.6306 53.1073 31.2428 53.7128C32.2349 54.6859 33.3115 55.5941 34.4514 56.3942C34.5992 56.5456 34.7259 56.6537 34.8736 56.7618Z" fill="white"/>
<path fill-rule="evenodd" clip-rule="evenodd" d="M44.0362 57.5613C43.3185 57.7343 42.6008 57.8856 41.8619 57.9721C41.7564 57.9938 41.6509 57.9938 41.5453 57.9938C41.3975 58.0154 41.2498 58.0154 41.102 58.0154C41.0387 58.0154 40.9542 58.0154 40.8909 58.0154C40.7431 58.0154 40.5954 58.0154 40.4265 58.0154C40.0043 58.0154 39.6032 57.9938 39.2021 57.9505C38.5477 57.5829 37.8089 57.518 37.07 57.4315C36.2468 57.345 35.6135 56.8909 34.8746 56.4368C35.1491 56.3503 35.3602 56.2855 35.5712 56.2206C35.6557 56.1773 35.6557 56.1125 35.5712 56.0692C35.2546 55.8313 34.938 55.5935 34.6213 55.3556C34.0514 54.9448 33.5025 54.5123 32.9748 54.0366C30.7793 52.0688 28.795 49.9063 27.4651 47.2033C26.874 46.014 26.4941 44.7814 26.3463 43.5056C26.3463 43.4624 26.3252 43.4191 26.3252 43.3542C26.3252 42.2947 26.4519 41.2351 26.7052 40.2188C26.7685 40.5864 26.8318 40.954 26.9163 41.3216C27.1485 42.3163 27.4651 43.2678 27.8873 44.1976C28.2884 45.0626 28.6895 45.9059 29.2172 46.6844C29.555 47.1168 29.8294 47.5926 30.1461 48.0251C30.6527 48.717 31.1593 49.3874 31.7293 50.0145C32.2148 50.5767 32.7003 51.1389 33.2281 51.6363C33.8614 52.2201 34.4947 52.804 35.1702 53.3446C35.7612 53.7987 36.3523 54.2528 36.9856 54.6636C37.9567 55.3124 39.0121 55.853 40.0887 56.3503C40.0887 56.3503 40.0887 56.3503 40.1098 56.3503C40.8487 56.6963 41.5875 56.9342 42.3686 57.1504C42.8119 57.2802 43.2763 57.3667 43.7618 57.4099C43.8674 57.4315 43.994 57.4099 44.0362 57.5613Z" fill="white"/>
<path fill-rule="evenodd" clip-rule="evenodd" d="M48.8068 55.1825C48.8279 55.2258 48.7857 55.269 48.7434 55.2907C48.3423 55.5718 47.9835 55.8745 47.5402 56.0908C47.2658 56.2205 46.9913 56.3719 46.738 56.5449C46.4214 56.7395 46.1047 56.7611 45.7459 56.6962C45.3026 56.6314 44.8592 56.5665 44.4159 56.7827C43.9515 57.0206 43.4238 56.8692 42.9383 56.8043C42.2627 56.7395 41.6295 56.5665 40.9962 56.3935C40.9539 56.3719 40.8906 56.3502 40.8484 56.3286C40.8062 56.307 40.764 56.2854 40.7217 56.2854L40.7006 56.2637H40.6795C40.1096 56.1772 39.6029 55.9178 39.0752 55.6799C38.8641 55.5934 38.6319 55.5069 38.4419 55.3772C38.2308 55.2474 38.2519 55.1609 38.463 55.0312C38.6741 54.923 38.9063 54.8149 39.0963 54.6852C39.2863 54.5771 39.2863 54.5122 39.0963 54.4041C38.8008 54.2311 38.5052 54.0365 38.2308 53.8635C38.2097 53.8419 38.1675 53.8202 38.1464 53.7986C37.1964 53.1282 36.2676 52.4579 35.4021 51.6794C32.5523 49.1494 30.2302 46.2085 28.7525 42.6406C28.3092 41.5594 27.9715 40.4565 27.887 39.2888C27.8659 38.9428 27.8448 38.5969 27.8659 38.2509C27.887 37.667 27.9715 37.0832 28.1404 36.5426C28.1404 36.5426 28.1404 36.5426 28.1404 36.5209C28.4148 36.0236 28.6892 35.5479 29.0058 35.0938C29.0058 35.2019 28.9847 35.31 28.9847 35.4181C28.9636 36.0885 29.027 36.7372 29.1114 37.3859C29.2592 38.4455 29.5758 39.4834 29.9558 40.4998C30.568 42.1216 31.3701 43.6137 32.3201 44.9976C32.3834 45.4085 32.489 45.8409 32.6367 46.2518C33.2278 48.025 34.3466 49.517 35.761 50.5334C36.7953 51.2686 37.9986 51.7876 39.2652 51.9822C39.7296 52.3065 40.2151 52.6093 40.7217 52.8904C42.1783 53.7337 43.6982 54.4041 45.3448 54.7933C45.4292 54.8149 45.5136 54.8149 45.5981 54.8366C45.6825 54.8582 45.767 54.8582 45.8514 54.8798C46.3158 54.9447 46.7802 55.0312 47.2446 55.0744C47.5824 55.1177 47.9202 55.1177 48.2579 55.1177C48.4057 55.096 48.5746 55.0312 48.7223 55.096C48.7223 55.1393 48.7857 55.1177 48.8068 55.1825Z" fill="white"/>
<path fill-rule="evenodd" clip-rule="evenodd" d="M52.7121 50.5121C52.7332 50.5121 52.7543 50.4905 52.7754 50.4905C52.2055 51.5501 51.5511 52.4799 50.7911 53.3233C50.7278 53.3881 50.6644 53.4314 50.58 53.4314C50.4533 53.4314 50.3267 53.4963 50.2211 53.4746C50.1578 53.4746 50.0945 53.453 50.0312 53.453C49.5034 53.4314 49.1234 53.7125 48.7646 54.1017C48.6168 54.2531 48.469 54.3829 48.2157 54.4045C47.878 54.4477 47.5191 54.4694 47.1813 54.4694H47.1602C46.1047 54.491 45.0493 54.2964 44.0149 54.0152C43.276 53.8206 42.5794 53.5395 41.8828 53.2368C41.6506 53.1503 41.6717 53.0854 41.8406 52.934C42.2628 52.6097 42.685 52.2421 43.0861 51.8312C43.0016 51.788 42.9383 51.7447 42.875 51.7231C43.8671 51.4204 44.8171 50.923 45.6403 50.2743C45.6826 50.231 45.7459 50.1878 45.7881 50.1445C47.1813 50.6851 48.6379 50.9879 50.1578 50.9662C50.7911 50.9662 51.4455 50.8581 52.0366 50.6851C52.1843 50.6419 52.3321 50.5986 52.4799 50.5338C52.5643 50.577 52.6277 50.5554 52.7121 50.5121Z" fill="white"/>
<path fill-rule="evenodd" clip-rule="evenodd" d="M50.8117 46.1452C50.0518 46.1668 49.3129 46.0587 48.5952 45.8641C49.0596 44.3288 50.6429 43.4422 52.1628 43.8963C52.7327 44.0693 53.2182 44.3937 53.556 44.8261C53.556 44.8478 53.556 44.8478 53.556 44.8694C53.556 44.9991 53.4505 45.064 53.366 45.1505C52.6483 45.8425 51.7617 46.102 50.8117 46.1452Z" fill="white"/>
<path fill-rule="evenodd" clip-rule="evenodd" d="M54.232 46.4683C54.2109 46.5981 54.1687 46.7278 54.1475 46.8576C54.1053 47.0954 53.9998 47.3333 53.9576 47.5712C53.9153 47.9171 53.7676 48.155 53.5142 48.3064C53.4298 48.3496 53.3454 48.3929 53.2398 48.4145C53.1976 48.4361 53.1765 48.4361 53.1343 48.4361C52.7121 48.5226 52.4588 48.7605 52.3532 49.1714C52.2477 49.5822 51.9521 49.7768 51.5722 49.9282C50.3267 50.3823 49.0601 50.4039 47.7724 50.2526C47.2024 50.1877 46.6536 50.0579 46.1047 49.8849C47.1602 48.9119 47.9835 47.6793 48.4479 46.2521C49.3345 46.5765 50.2422 46.7711 51.2133 46.8143C52.1632 46.8359 53.0498 46.663 53.852 46.144C53.9576 46.0791 54.042 46.0142 54.1264 45.9277C54.1898 46.1224 54.232 46.2953 54.232 46.4683Z" fill="white"/>
<path fill-rule="evenodd" clip-rule="evenodd" d="M86.0432 37.1488C85.9798 36.8893 85.8532 36.6514 85.7054 36.4352L66.4534 5.90198C66.4322 5.85873 66.39 5.81548 66.3689 5.77223C65.3134 4.21529 63.8991 2.98272 62.2947 2.13938C60.6904 1.29604 58.8961 0.820312 57.0595 0.820312C55.223 0.820312 53.4286 1.27442 51.8243 2.13938C50.22 2.98272 48.8056 4.23692 47.7501 5.77223C47.7079 5.8371 47.6868 5.88035 47.6446 5.94522L37.913 22.293C37.0686 23.6986 37.5119 25.515 38.8841 26.38C40.2562 27.2233 42.0294 26.7909 42.8738 25.3853L52.542 9.14559C53.0698 8.41037 53.7453 7.82652 54.5052 7.41566C55.2863 7.00481 56.1729 6.76694 57.0806 6.76694C58.0095 6.76694 58.875 6.98318 59.656 7.41566C60.416 7.82652 61.0915 8.41037 61.6192 9.16722L80.618 39.3112C81.0191 40.8465 80.9768 42.4251 80.5335 43.8739C80.0691 45.4308 79.1614 46.8796 77.8737 47.9608C76.5649 49.042 75.0239 49.6908 73.4407 49.8421C71.9208 49.9935 70.3797 49.6908 68.9654 48.9772L49.08 31.959C48.9956 31.8941 48.9112 31.8293 48.8478 31.7644C48.3201 31.3752 47.7712 31.0292 47.2224 30.7264C47.2013 30.7264 47.1802 30.7048 47.1591 30.7048C47.0957 30.6616 47.0535 30.6399 47.0113 30.6183C46.9691 30.5967 46.9269 30.5967 46.9057 30.5751C46.1458 30.2075 45.3647 29.9047 44.4992 29.9264C44.2248 29.9264 43.9715 29.9912 43.7815 30.0777C43.6337 30.1426 43.5071 30.2291 43.4015 30.3156C43.0638 30.5967 42.8949 31.0508 42.8949 31.6347C42.8949 32.3915 43.106 33.1051 43.4226 33.7754C43.8237 34.6404 44.3093 35.4405 44.8792 36.1757C45.0692 36.2838 45.2592 36.4136 45.4281 36.5433L51.8876 42.0575L52.6898 42.7494L54.1253 43.9604L65.4823 53.6912C65.6301 53.821 65.7778 53.9291 65.9678 54.0156C68.4588 55.4212 71.2664 55.9618 73.9895 55.7239C76.7338 55.4644 79.3725 54.4048 81.589 52.5452C83.8055 50.6855 85.3465 48.242 86.1276 45.5606C86.8665 42.8792 86.8876 39.9599 86.0432 37.1488ZM51.6765 35.5919C51.8876 35.9595 52.0565 36.3487 52.0565 36.7812C52.0565 36.9109 52.0354 37.0191 51.9932 37.1272C51.9299 37.2569 51.8243 37.3434 51.6765 37.3867C51.6132 37.4083 51.5288 37.4083 51.4443 37.4083C51.0644 37.3867 50.7266 37.2137 50.3889 37.0623C50.3044 37.0407 50.22 37.0191 50.1778 36.9109C50.2833 36.9109 50.3677 36.9326 50.4522 36.9974C50.6422 37.0623 50.8533 37.1272 51.001 36.9542C51.0855 36.8677 51.1066 36.7596 51.0855 36.6514C51.0855 36.5649 51.0433 36.4568 51.0221 36.3703C50.9166 36.046 50.7477 35.7432 50.5788 35.4837C50.4522 35.2891 50.3255 35.1161 50.1778 34.9431C49.5234 34.1214 48.7845 33.4295 47.919 32.8672C47.729 32.7375 47.5179 32.6294 47.2857 32.5645C47.2435 32.5429 47.2013 32.5429 47.1591 32.5212C46.9269 32.478 46.8002 32.5212 46.7369 32.6942C46.7158 32.7807 46.6947 32.8672 46.7158 32.997C46.7158 33.0402 46.7158 33.0618 46.6947 33.1051C46.5469 32.8889 46.4413 32.6726 46.3991 32.4131C46.378 32.2618 46.3569 32.1104 46.378 31.959C46.378 31.9374 46.378 31.9158 46.378 31.8941C46.4202 31.5698 46.6946 31.3968 47.0746 31.4617C47.539 31.5265 47.9401 31.7428 48.3412 31.9806C49.6922 32.9321 50.8322 34.1214 51.6765 35.5919Z" fill="white"/>
<path d="M48.8055 55.1828C48.8267 55.2261 48.7844 55.2693 48.7422 55.2909C48.3411 55.5721 47.9823 55.8748 47.539 56.091C47.2645 56.2208 46.9901 56.3721 46.7368 56.5451C46.4201 56.7398 46.1035 56.7614 45.7446 56.6965C45.3013 56.6316 44.858 56.5668 44.4147 56.783C43.9503 57.0209 43.4226 56.8695 42.937 56.8046C42.2615 56.7398 41.6282 56.5668 40.9949 56.3938C40.9527 56.3721 40.8894 56.3505 40.8472 56.3289C40.805 56.3073 40.7627 56.2856 40.7205 56.2856L40.6994 56.264H40.6783C40.1083 56.1775 39.6017 55.918 39.074 55.6802C38.8629 55.5937 38.6307 55.5072 38.4407 55.3774C38.2296 55.2477 38.2507 55.1612 38.4618 55.0315C38.6729 54.9233 38.9051 54.8152 39.0951 54.6855C39.2851 54.5774 39.2851 54.5125 39.0951 54.4044C38.7995 54.2314 38.504 54.0368 38.2296 53.8638C38.2085 53.8421 38.1662 53.8205 38.1451 53.7989C37.1952 53.1285 36.2664 52.4582 35.4009 51.6797C32.5511 49.1497 30.229 46.2088 28.7513 42.6408C28.308 41.5596 27.9703 40.4568 27.8858 39.2891C27.8647 38.9431 27.8436 38.5971 27.8647 38.2512C27.8858 37.6673 27.9703 37.0834 28.1391 36.5428C28.1391 36.5428 28.1391 36.5428 28.1391 36.5212C28.308 35.9806 28.5402 35.4616 28.878 34.9643C28.9202 34.921 28.9624 34.8562 29.0468 34.748C29.0468 34.8778 29.0257 35.0075 29.0257 35.094C29.0257 35.2022 29.0046 35.3103 29.0046 35.4184C28.9835 36.0887 29.0468 36.7375 29.1313 37.3862C29.2791 38.4458 29.5957 39.4837 29.9757 40.5001C30.5879 42.1219 31.39 43.6139 32.34 44.9979C32.7833 45.625 33.2477 46.2521 33.7332 46.8359C33.9443 47.0954 34.1554 47.3333 34.3665 47.5711C35.8442 49.2362 37.4696 50.7283 39.2851 51.9608C39.7495 52.2852 40.235 52.5879 40.7416 52.869C42.1982 53.7124 43.7181 54.3827 45.3647 54.772C45.4491 54.7936 45.5335 54.7936 45.618 54.8152C45.7024 54.8368 45.7869 54.8368 45.8713 54.8585C46.3357 54.9233 46.8001 55.0098 47.2645 55.0531C47.6023 55.0963 47.94 55.0963 48.2778 55.0963C48.4256 55.0747 48.5944 55.0098 48.7422 55.0747C48.7211 55.1396 48.7844 55.118 48.8055 55.1828Z" fill="white"/>
<path d="M44.0355 57.5609C43.3178 57.7339 42.6 57.8852 41.8612 57.9717C41.7556 57.9934 41.6501 57.9934 41.5445 57.9934C41.3968 58.015 41.249 58.015 41.1012 58.015C41.0379 58.015 40.9535 58.015 40.8901 58.015C40.7424 58.015 40.5946 58.015 40.4257 58.015C40.088 58.015 39.7291 57.9934 39.3702 57.9934C39.3069 57.9934 39.2436 57.9717 39.2014 57.9501C38.547 57.5825 37.8081 57.5176 37.0693 57.4311C36.246 57.3446 35.6127 56.8905 34.8739 56.4364C35.1483 56.3499 35.3594 56.285 35.5705 56.2202C35.6549 56.1769 35.6549 56.1121 35.5705 56.0688C35.2538 55.8309 34.9372 55.5931 34.6205 55.3552C34.0506 54.9444 33.5017 54.5119 32.974 54.0361C30.7786 52.0684 28.7943 49.9059 27.4644 47.2029C26.8733 46.0136 26.4933 44.781 26.3455 43.5052C26.3455 43.462 26.3244 43.4187 26.3244 43.3538C26.2822 42.8565 26.2611 42.3375 26.2822 41.8401C26.3033 41.2995 26.3666 40.7373 26.4933 40.1967C26.5144 40.0237 26.5355 39.8507 26.6622 39.6777V40.067C26.6622 40.1102 26.6833 40.1535 26.6833 40.1967C26.7466 40.5643 26.8099 40.9319 26.8944 41.2995C27.1266 42.2943 27.4432 43.2457 27.8654 44.1755C28.2665 45.0405 28.6676 45.8838 29.1954 46.6623C29.5331 47.0948 29.8075 47.5705 30.1242 48.003C30.6308 48.695 31.1374 49.3653 31.7074 49.9924C32.1929 50.5547 32.6785 51.1169 33.2062 51.6142C33.8395 52.1981 34.4728 52.7819 35.1483 53.3226C35.7394 53.7767 36.3304 54.2308 36.9637 54.6416C37.9348 55.2903 38.9903 55.8309 40.0669 56.3283C40.0669 56.3283 40.0669 56.3283 40.088 56.3283C40.8268 56.6743 41.5656 56.9121 42.3467 57.1284C42.79 57.2581 43.2544 57.3446 43.7399 57.3879C43.8666 57.4311 43.9933 57.4095 44.0355 57.5609Z" fill="white"/>
<path d="M35.4857 57.1495C35.2534 57.0846 35.0212 57.0198 34.8101 56.89C33.9446 56.5657 33.1425 56.0899 32.3825 55.5493C30.546 54.2519 29.0894 52.6517 28.0128 50.7055C28.0128 50.7055 28.0128 50.7055 28.0128 50.6839C27.8017 50.2947 27.6117 49.9054 27.4217 49.4946C27.4006 49.4513 27.4006 49.4081 27.3795 49.3648C27.2318 49.1053 27.1473 48.8242 27.084 48.5215C27.2318 48.7377 27.3584 48.9756 27.5062 49.1918C27.5273 49.2135 27.5484 49.2567 27.5695 49.2783C28.1817 50.1433 28.7939 51.0083 29.4694 51.8084C30.0393 52.4787 30.6304 53.1058 31.2426 53.7113C32.2348 54.6844 33.3114 55.5926 34.4513 56.3927C34.599 56.5008 34.7257 56.6089 34.8735 56.717C35.0423 56.7603 35.1901 56.8684 35.3379 56.9765C35.3801 57.063 35.4223 57.1062 35.4857 57.1495Z" fill="white"/>
<path d="M53.5768 39.6557C53.5557 39.7422 53.5345 39.8071 53.4923 39.8936C53.4501 40.0233 53.4079 40.1314 53.3446 40.2612C53.1968 40.6072 53.049 40.9315 52.8801 41.2559C52.6479 41.71 52.2891 41.9478 51.8458 42.056C51.6769 42.0992 51.508 42.1208 51.318 42.1425C50.6214 42.1857 49.9459 42.0127 49.2704 41.7965C49.1648 41.7532 49.0593 41.7316 48.9537 41.6884C48.4682 41.6019 48.0671 41.3424 47.6449 41.0829C47.5605 41.0396 47.5394 40.9748 47.5394 40.8666C47.5183 40.499 47.4338 40.153 47.3916 39.7854C47.3494 39.3962 47.2439 39.0502 47.1383 38.6826C47.1172 38.5745 47.0116 38.5096 46.9272 38.4231C46.1673 37.7312 45.4495 36.9959 44.8373 36.1742C44.2674 35.439 43.7819 34.6389 43.3808 33.7739C43.0641 33.082 42.853 32.39 42.853 31.6332C42.853 31.0493 43.0219 30.6168 43.3597 30.3141C43.4652 30.206 43.5919 30.1411 43.7396 30.0762C43.9507 29.9897 44.1829 29.9249 44.4574 29.9249C45.3229 29.9032 46.1039 30.2276 46.8639 30.5736C46.9061 30.5952 46.9483 30.5952 46.9694 30.6168C47.0116 30.6384 47.075 30.6601 47.1172 30.7033C47.1805 30.7466 47.265 30.7898 47.3283 30.8547C47.0961 30.8114 46.9272 30.7466 46.8005 30.6384C46.4628 30.5303 46.1461 30.4438 45.7873 30.4438C45.344 30.4438 44.9851 30.5736 44.7529 30.8114C44.6685 30.8979 44.6051 31.0061 44.5418 31.1358C44.4574 31.3737 44.4363 31.6548 44.4785 31.9791C44.6051 32.9306 45.0273 33.7523 45.5551 34.5308C46.6528 36.1742 48.0249 37.5365 49.7137 38.5312C50.3259 38.8772 50.9592 39.18 51.6769 39.2232C52.1624 39.2448 52.458 39.18 52.6902 38.9421C52.7957 38.834 52.8801 38.7042 52.9435 38.5312C52.9857 38.4447 53.0279 38.3366 53.049 38.2285C53.049 38.0339 53.049 37.8609 53.049 37.6663C53.0068 37.6014 53.0068 37.5365 53.0068 37.4717C52.9646 37.2987 52.9224 37.1041 52.859 36.9094C52.7746 36.7364 52.7113 36.5635 52.6479 36.3905C52.669 36.3905 52.6902 36.3688 52.7113 36.3688C52.7957 36.5202 52.859 36.6932 52.9435 36.8446C53.0279 37.0608 53.1124 37.2554 53.1968 37.4717C53.5345 38.2069 53.7456 38.9205 53.5768 39.6557Z" fill="white"/>
<path d="M54.5264 43.3545C54.5264 43.441 54.5053 43.4842 54.4631 43.5491C54.3998 43.6789 54.2731 43.7654 54.1887 43.8735C54.1465 43.9167 54.1254 43.96 54.0831 43.9816C54.062 44.0032 54.062 44.0032 54.0409 44.0032C53.7032 44.1762 53.5554 44.4573 53.5554 44.8249C53.5554 44.8466 53.5554 44.8466 53.5554 44.8682C53.5554 44.9979 53.4498 45.0628 53.3654 45.1493C52.6266 45.8413 51.74 46.1224 50.79 46.144C50.0301 46.1656 49.2912 46.0575 48.5735 45.8629C48.1302 45.7548 47.708 45.6034 47.2647 45.4304C47.1169 45.3655 47.0958 45.3007 47.138 45.1493C47.2858 44.6519 47.3702 44.1546 47.4547 43.6356C47.4758 43.4626 47.4547 43.3761 47.3069 43.2896C44.3727 41.5597 42.1139 39.1811 40.4463 36.1969C40.214 35.7861 40.0029 35.3752 39.813 34.9427C39.4541 34.1426 39.1797 33.2993 39.053 32.4127C38.9686 31.8289 38.9475 31.2666 39.1163 30.7044C39.1797 30.5314 39.243 30.3584 39.3274 30.1854C39.4119 30.0557 39.4752 29.9259 39.5808 29.8394C39.9396 29.4286 40.4463 29.2123 40.9951 29.1258C41.2273 29.0826 41.4384 29.061 41.6706 29.061C41.7551 29.061 41.8395 29.061 41.9239 29.061C42.0506 29.061 42.1772 29.0393 42.3039 28.9961C42.3672 29.0393 42.4095 29.0826 42.4728 29.1258C42.4728 29.1258 42.4728 29.1475 42.4939 29.1475C42.4939 29.1691 42.515 29.1691 42.515 29.1691C42.3883 29.2556 42.2406 29.3421 42.1139 29.4286C41.945 29.5151 41.6917 29.6881 41.4806 29.9692C41.1007 30.4449 41.0162 30.9423 40.9951 31.2018C40.9107 32.1748 41.1429 33.083 41.5017 33.948C41.6706 34.3372 41.8395 34.7049 42.0295 35.0508C42.895 36.6727 44.0349 38.0782 45.3859 39.354C45.977 39.9163 46.6103 40.4569 47.2858 40.911C47.8135 41.1921 48.2991 41.4948 48.7846 41.8408C49.7134 42.3598 50.6845 42.7274 51.74 42.7923C52.0566 42.8139 52.3732 42.7923 52.6477 42.7274C53.1121 42.6193 53.5343 42.3598 53.8298 41.9273C53.9565 41.7543 54.0409 41.5381 54.1253 41.2786C54.1465 41.1705 54.1887 41.0623 54.2098 40.9542C54.2098 40.8894 54.2309 40.8029 54.2309 40.738C54.2942 40.8894 54.3576 41.0407 54.3364 41.2137C54.4842 41.9273 54.5264 42.6409 54.5264 43.3545Z" fill="white"/>
<path d="M52.7958 50.4907C52.2258 51.5503 51.5714 52.4801 50.8115 53.3235C50.7482 53.3883 50.6848 53.4316 50.6004 53.4316C50.4737 53.4316 50.3471 53.4965 50.2415 53.4748C50.1782 53.4748 50.1149 53.4532 50.0515 53.4532C49.5238 53.4316 49.1438 53.7127 48.785 54.1019C48.6372 54.2533 48.4894 54.3831 48.2361 54.4047C47.8983 54.4479 47.5395 54.4696 47.2017 54.4696H47.1806C46.1251 54.4912 45.0696 54.2966 44.0353 54.0154C43.2964 53.8208 42.5998 53.5397 41.9032 53.237C41.671 53.1505 41.6921 53.0856 41.861 52.9342C42.2832 52.6099 42.7054 52.2423 43.1064 51.8314C43.022 51.7882 42.9587 51.7449 42.8953 51.7233C42.3887 51.4638 41.9032 51.2043 41.4599 50.9232C38.0401 48.804 35.3381 46.0578 33.396 42.6412C33.1004 42.1222 32.8049 41.56 32.5516 41.0194C32.3194 40.5436 32.1083 40.0679 31.9183 39.5922C31.3483 38.1866 30.9895 36.7594 31.0317 35.2241C31.0317 35.116 31.0317 35.0079 31.0528 34.8997C31.1372 33.6023 31.5805 32.4995 32.4038 31.6345C32.6782 31.3318 32.9949 31.0723 33.3749 30.8344C33.4171 30.8128 33.4382 30.7912 33.4804 30.7912C33.5015 30.7912 33.5226 30.7912 33.5648 30.7695C33.5437 30.8128 33.5226 30.8776 33.5226 30.9209C33.396 31.3101 33.2904 31.6777 33.206 32.067C33.1215 32.5427 33.0793 33.0184 33.0582 33.4942C33.0371 34.5321 33.1849 35.5485 33.4593 36.5648C33.6071 37.127 33.7759 37.6892 33.987 38.2082C34.0082 38.2947 34.0504 38.3596 34.0715 38.4245C34.8103 40.2841 35.8447 41.9708 37.1113 43.5494C39.1167 46.0578 41.5021 48.0904 44.373 49.5176C44.8586 49.7555 45.3652 49.9717 45.8507 50.1663C47.2439 50.707 48.7005 51.0097 50.2204 50.9881C50.8537 50.9881 51.5081 50.8799 52.0992 50.707C52.247 50.6637 52.3947 50.6205 52.5425 50.5556C52.6058 50.534 52.6691 50.5123 52.7747 50.4691C52.7325 50.5123 52.7536 50.5123 52.7958 50.4907Z" fill="white"/>
<path d="M54.3371 45.8198C54.3371 45.9063 54.316 45.9928 54.316 46.1009C54.316 46.1442 54.2948 46.1874 54.2948 46.2307C54.2948 46.2739 54.2737 46.3172 54.2737 46.3604C54.2737 46.4037 54.2526 46.4469 54.2526 46.4685C54.2315 46.5983 54.1893 46.728 54.1682 46.8578C54.126 47.0956 54.0204 47.3335 53.9782 47.5714C53.936 47.9173 53.7882 48.1552 53.5349 48.3066C53.4505 48.3498 53.366 48.3931 53.2605 48.4147C53.2183 48.4363 53.1971 48.4363 53.1549 48.4363C52.7327 48.5228 52.4794 48.7607 52.3739 49.1716C52.2683 49.5824 51.9728 49.777 51.5928 49.9284C50.3473 50.3825 49.0807 50.4041 47.793 50.2528C47.2231 50.1879 46.6742 50.0581 46.1254 49.8851C45.851 49.7986 45.5976 49.7338 45.3232 49.6257C45.1332 49.5608 45.091 49.4959 45.2177 49.3229C45.5554 48.8472 45.8298 48.3498 46.1043 47.8309C46.1887 47.6579 46.2098 47.5714 45.9987 47.4632C43.8244 46.4037 41.9457 44.9332 40.278 43.1817C38.4203 41.2355 36.8793 39.0515 35.9294 36.4782C35.9083 36.435 35.8872 36.3917 35.8872 36.3485C35.6972 35.8511 35.5494 35.3754 35.4439 34.8564C35.275 34.0779 35.2117 33.2995 35.2539 32.4777C35.275 32.2831 35.2961 32.0885 35.3172 31.9155C35.5494 30.7478 36.2671 29.7964 37.3226 29.3422C37.4915 29.2774 37.6604 29.2125 37.8293 29.1693C37.8926 29.1476 37.9559 29.126 38.0193 29.1476C38.0193 29.1693 38.0193 29.1693 38.0193 29.1693L37.9981 29.1909C37.5971 29.7315 37.3649 30.2937 37.2171 30.8559C37.0904 31.3749 37.0482 31.9155 37.0904 32.4777C37.1115 33.0183 37.2171 33.5806 37.3437 34.1428C37.4493 34.5753 37.5759 34.9861 37.7237 35.3754C38.2937 36.9539 39.1381 38.3811 40.1513 39.7218C42.0512 42.2302 44.3522 44.2629 47.1598 45.6468C47.582 45.8631 48.0041 46.0361 48.4475 46.1874C49.3341 46.5118 50.2418 46.7064 51.2128 46.7496C52.1628 46.7713 53.0494 46.5983 53.8515 46.0793C53.9571 46.0144 54.0415 45.9496 54.126 45.8631C54.1471 45.8414 54.1682 45.8198 54.1893 45.8198C54.2315 45.8847 54.2737 45.8631 54.3371 45.8198Z" fill="white"/>
</svg>
